<svg width="40" height="40" viewBox="0 0 40 40" fill="none" xmlns="http://www.w3.org/2000/svg">
<path d="M40 24.6753V16.689H35.0543L23.3474 5.8718C23.4789 5.50125 23.5511 5.1029 23.5511 4.68776C23.5511 2.72966 21.9581 1.13663 20 1.13663C18.0419 1.13663 16.4489 2.72966 16.4489 4.68776C16.4489 5.10285 16.5211 5.50125 16.6526 5.8718L4.94565 16.689H0V24.6753H1.39819L6.25625 38.8634H33.7437L38.6017 24.6753H40V24.6753ZM26.505 28.9227H21.4021V24.714H26.9206L26.505 28.9227ZM18.5979 36.0593H14.1997L13.7718 31.7269H18.5979V36.0593ZM13.495 28.9227L13.0794 24.7139H18.5979V28.9227H13.495ZM20.747 4.68776C20.747 4.9043 20.6539 5.09902 20.5062 5.23556C20.3729 5.35877 20.1954 5.43477 20 5.43477C19.8046 5.43477 19.6271 5.35877 19.4938 5.23556C19.3461 5.09898 19.253 4.9043 19.253 4.68776C19.253 4.47123 19.3461 4.2765 19.4938 4.13997C19.6271 4.01675 19.8046 3.94075 20 3.94075C20.1954 3.94075 20.3729 4.01675 20.5062 4.13997C20.6539 4.27654 20.747 4.47123 20.747 4.68776ZM18.5561 7.9309C18.9976 8.12826 19.4859 8.23894 20 8.23894C20.5141 8.23894 21.0024 8.12826 21.4439 7.9309L30.9224 16.6891H9.07761L18.5561 7.9309ZM2.80412 19.4931H37.1959V21.8712H2.80412V19.4931ZM10.2616 24.714L10.6772 28.9227H5.81649L4.37542 24.714H10.2616ZM8.26008 36.0593L6.77662 31.7269H10.9541L11.3819 36.0593H8.26008ZM21.4021 31.7268H26.2281L25.8003 36.0593H21.4021V31.7268ZM31.7399 36.0593H28.618L29.0458 31.7269H33.2233L31.7399 36.0593ZM34.1835 28.9227H29.3228L29.7383 24.7139H35.6246L34.1835 28.9227Z" fill="white"/>
</svg>
