<svg width="76" height="76" viewBox="0 0 76 76" fill="none" xmlns="http://www.w3.org/2000/svg">
<g clip-path="url(#clip0)">
<path d="M74.7646 37.3999L69.5906 33.2718L65.7471 26.1075C65.174 25.0396 64.0655 24.3763 62.8544 24.3763H53.705C53.0902 24.3763 52.5917 24.8747 52.5917 25.4895C52.5917 26.1044 53.0902 26.6028 53.705 26.6028H62.8544C63.244 26.6028 63.6007 26.8164 63.7852 27.1602L67.7366 34.5257C67.8079 34.6587 67.9054 34.7756 68.0234 34.8696L73.3755 39.1397C73.6284 39.3419 73.7734 39.6432 73.7734 39.9666V45.2236H71.1853C70.5704 45.2236 70.072 45.722 70.072 46.3368C70.072 46.9517 70.5704 47.4501 71.1853 47.4501H73.7734V48.7389H71.1853C70.5704 48.7389 70.072 49.2373 70.072 49.8521C70.072 50.467 70.5704 50.9654 71.1853 50.9654H73.7734V52.9742C73.7734 53.557 73.2993 54.0311 72.7166 54.0311H62.4543C61.941 51.6286 59.8025 49.8211 57.2492 49.8211C54.6959 49.8211 52.5573 51.6288 52.044 54.0312H49.5054L49.506 18.1923C49.506 16.7256 48.3127 15.5323 46.846 15.5323H2.66C1.19329 15.5323 0 16.7256 0 18.1923V53.5978C0 55.0645 1.19329 56.2578 2.66 56.2578H5.07463C5.58808 58.6603 7.72647 60.4676 10.2797 60.4676C11.9909 60.4676 13.5151 59.6551 14.4896 58.3965C15.4641 59.6551 16.9882 60.4676 18.6994 60.4676C21.2528 60.4676 23.3912 58.6603 23.9045 56.2578H36.8125C37.4273 56.2578 37.9258 55.7594 37.9258 55.1445C37.9258 54.5297 37.4273 54.0312 36.8125 54.0312H23.9047C23.4879 52.0803 21.9992 50.5226 20.0867 50.0058H47.2788V54.0312H42.1392C41.5244 54.0312 41.0259 54.5297 41.0259 55.1445C41.0259 55.7594 41.5244 56.2578 42.1392 56.2578H52.0441C52.5576 58.6603 54.6959 60.4676 57.2492 60.4676C59.8025 60.4676 61.941 58.6603 62.4543 56.2578H72.7166C74.5271 56.2578 76 54.7849 76 52.9744V39.9668C76 38.9628 75.5499 38.0273 74.7646 37.3999ZM2.22656 42.36H47.2788V47.7791H2.22656V42.36ZM2.66 17.7589H46.846C47.085 17.7589 47.2794 17.9534 47.2794 18.1923L47.2788 31.4775L28.066 28.615L18.0145 23.0154C17.8489 22.9231 17.6623 22.8747 17.4727 22.8747H11.6902C11.0754 22.8747 10.5769 23.3731 10.5769 23.9879C10.5769 24.6028 11.0754 25.1012 11.6902 25.1012H17.1836L27.1596 30.6589C27.2767 30.7242 27.4047 30.7677 27.5374 30.7874L47.2788 33.7287V40.1335H2.22656V25.1012H6.38148C6.9963 25.1012 7.49476 24.6028 7.49476 23.9879C7.49476 23.3731 6.9963 22.8747 6.38148 22.8747H2.22656V18.1923C2.22656 17.9534 2.42102 17.7589 2.66 17.7589ZM2.22656 53.5978V50.0058H8.89245C6.98012 50.5226 5.49145 52.0803 5.07463 54.0312H2.66C2.42102 54.0312 2.22656 53.8368 2.22656 53.5978ZM10.2797 58.2411C8.57227 58.2411 7.18319 56.852 7.18319 55.1445C7.18319 53.437 8.57227 52.048 10.2797 52.048C11.9872 52.048 13.3763 53.437 13.3763 55.1445C13.3763 56.852 11.9872 58.2411 10.2797 58.2411ZM21.7961 55.1445C21.7961 56.852 20.407 58.2411 18.6996 58.2411C16.9921 58.2411 15.603 56.852 15.603 55.1445C15.603 53.437 16.9921 52.048 18.6996 52.048C20.407 52.048 21.7961 53.437 21.7961 55.1445ZM14.4896 51.8924C13.7884 50.9868 12.8026 50.3127 11.667 50.0059H17.3123C16.1766 50.3127 15.1908 50.9868 14.4896 51.8924ZM57.2492 58.2411C55.5429 58.2411 54.1548 56.8539 54.1528 55.1481C54.1528 55.1469 54.153 55.1457 54.153 55.1445C54.153 55.1433 54.1528 55.1422 54.1528 55.141C54.1548 53.4351 55.5429 52.048 57.2492 52.048C58.9567 52.048 60.3458 53.437 60.3458 55.1445C60.3458 56.852 58.9567 58.2411 57.2492 58.2411Z" fill="black"/>
<path d="M53.0392 41.2063H64.1179C64.4133 41.2063 64.6965 41.0889 64.9053 40.88C65.1142 40.671 65.2313 40.3878 65.2312 40.0924L65.2283 35.4375C65.2283 35.2645 65.1878 35.0938 65.1102 34.9391L62.6347 30.0034C62.4459 29.6268 62.0607 29.3892 61.6396 29.3892H53.0392C52.4244 29.3892 51.926 29.8876 51.926 30.5024V40.093C51.926 40.7078 52.4244 41.2063 53.0392 41.2063ZM54.1525 31.6156H60.9526L63.0021 35.7019L63.0042 38.9797H54.1527V31.6156H54.1525Z" fill="black"/>
<path d="M57.2492 56.371C57.9267 56.371 58.4759 55.8218 58.4759 55.1444C58.4759 54.4669 57.9267 53.9177 57.2492 53.9177C56.5717 53.9177 56.0225 54.4669 56.0225 55.1444C56.0225 55.8218 56.5717 56.371 57.2492 56.371Z" fill="black"/>
<path d="M10.2797 56.371C10.9572 56.371 11.5064 55.8218 11.5064 55.1444C11.5064 54.4669 10.9572 53.9177 10.2797 53.9177C9.60226 53.9177 9.05305 54.4669 9.05305 55.1444C9.05305 55.8218 9.60226 56.371 10.2797 56.371Z" fill="black"/>
<path d="M17.4729 55.1444C17.4729 55.8218 18.0221 56.371 18.6996 56.371C19.377 56.371 19.9262 55.8218 19.9262 55.1444C19.9262 54.4669 19.377 53.9177 18.6996 53.9177C18.0219 53.9177 17.4729 54.4669 17.4729 55.1444Z" fill="black"/>
<path d="M36.9742 22.6637H41.7981C42.4129 22.6637 42.9114 22.1652 42.9114 21.5504C42.9114 20.9356 42.4129 20.4371 41.7981 20.4371H36.9742C36.3593 20.4371 35.8609 20.9356 35.8609 21.5504C35.8609 22.1652 36.3593 22.6637 36.9742 22.6637Z" fill="black"/>
</g>
<defs>
<clipPath id="clip0">
<rect width="76" height="76" fill="white"/>
</clipPath>
</defs>
</svg>
