<svg width="76" height="76" viewBox="0 0 76 76" fill="none" xmlns="http://www.w3.org/2000/svg">
<path d="M74.7333 26.1486H68.4C56.775 26.1662 47.2604 35.4038 46.8996 47.0233L39.2667 52.7486V34.9507C49.2358 34.2809 56.9845 26.0069 57 16.0153V5.88193C57.0013 5.40297 56.7321 4.96423 56.3046 4.74827C44.7775 -0.980867 31.2327 -0.980867 19.7055 4.74827C19.6853 4.75967 19.6701 4.77613 19.6498 4.78753C19.6089 4.81271 19.5697 4.8401 19.532 4.86987C19.463 4.91879 19.3993 4.97484 19.342 5.03707C19.2519 5.13697 19.1791 5.25129 19.1267 5.37527C19.1077 5.41833 19.0874 5.46013 19.0722 5.50193C19.0427 5.59947 19.0253 5.70032 19.0203 5.80213C19.0203 5.83 19.0063 5.85533 19.0063 5.8832V16.0165C19.0196 26.0105 26.7626 34.2909 36.7333 34.9735V66.6819L29.1004 60.9566C28.7396 49.3372 19.225 40.0995 7.6 40.0819H1.26667C0.56715 40.0819 0 40.6491 0 41.3486C0.0133 53.2356 9.6463 62.8686 21.5333 62.8819H27.4449L36.7333 69.8486V75.5486H39.2667V55.9153L48.5551 48.9486H54.4667C66.3537 48.9353 75.9867 39.3023 76 27.4153C76 26.7158 75.4328 26.1486 74.7333 26.1486ZM10.3423 49.8074L8.55887 50.2533L9.17447 52.7106L12.9149 51.7758L24.1262 60.3486H21.5333C11.5363 60.3364 3.25407 52.5892 2.57513 42.6153H7.6C17.0333 42.6303 25.0303 49.5572 26.391 58.8919L13.6711 49.1652L13.6255 48.9866L13.4837 49.0221L7.1022 44.1429L5.56447 46.1543L10.3423 49.8074ZM52.592 5.84647C50.0324 6.89178 47.367 7.65637 44.6424 8.12647C42.3122 5.62337 39.3018 3.85495 35.9809 3.03827C41.6573 2.73791 47.3298 3.69693 52.592 5.84647ZM46.7476 10.295C46.1111 15.7765 42.791 20.583 37.8898 23.1187L36.6903 22.0915C33.2631 19.1533 31.0663 15.0338 30.5355 10.5509C32.9975 11.0085 35.496 11.2403 38 11.2437C40.9414 11.2407 43.874 10.9226 46.7476 10.295ZM28.5925 5.393C33.1273 4.41434 37.86 5.58126 41.42 8.55587C35.6836 9.06427 29.9062 8.28052 24.5125 6.26193L28.5925 5.393ZM21.8791 7.95167C23.8464 8.7921 25.8767 9.4761 27.9515 9.99733C28.3603 15.426 30.9125 20.4689 35.0449 24.013L35.3856 24.3056L31.5856 26.0599L29.488 24.1118C24.9348 19.8599 22.1374 14.0581 21.6461 7.8478L21.8791 7.95167ZM21.6096 17.5185C23.0978 20.7029 25.1851 23.5709 27.7577 25.9662L34.3077 32.0462C27.3877 30.4439 22.2716 24.5903 21.6096 17.5185ZM38.4902 32.4743H38.4889L33.5882 27.9219L38.3141 25.742C44.6617 22.7945 48.8954 16.6185 49.3557 9.63507C50.9772 9.17368 52.5683 8.61144 54.1196 7.95167L54.4667 7.8022V16.0153C54.4559 24.9142 47.3849 32.1988 38.4902 32.4743ZM54.4667 46.4153H51.8738L62.1262 38.5746L61.7589 40.0439L66.8255 41.3106L67.4411 38.8533L63.1611 37.7842L70.4355 32.221L68.8978 30.2095L57 39.308V37.5486H54.4667V41.2447L49.609 44.9586C50.9697 35.6239 58.9667 28.697 68.4 28.6819H73.4249C72.7459 38.6558 64.4637 46.4031 54.4667 46.4153Z" fill="black"/>
</svg>
