<svg width="30" height="30" viewBox="0 0 30 30" fill="none" xmlns="http://www.w3.org/2000/svg">
<g clip-path="url(#clip0)">
<path d="M15 3.1875C12.3697 3.1875 10.2375 5.31975 10.2375 7.95C10.2375 10.5802 12.3697 12.7125 15 12.7125C17.629 12.7095 19.7595 10.579 19.7625 7.95C19.7625 5.31975 17.6302 3.1875 15 3.1875ZM15 11.7125C12.9229 11.7103 11.2397 10.0271 11.2375 7.95C11.2375 5.872 12.922 4.1875 15 4.1875C17.0779 4.1875 18.7625 5.872 18.7625 7.95C18.7625 10.0279 17.0779 11.7125 15 11.7125Z" fill="white"/>
<path d="M17.978 19.113L21.686 13.8095C22.8648 12.1365 23.4983 10.1405 23.5 8.09399C23.4719 4.77843 21.3829 1.83068 18.264 0.70549L17.9 0.56599C16.0314 -0.14426 13.9748 -0.187323 12.078 0.44399C8.79519 1.48461 6.54775 4.51055 6.5 7.95399V8.09399C6.50163 10.1404 7.13513 12.1363 8.314 13.809L12.022 19.113C5.2155 19.6305 0.5 21.821 0.5 24.5C0.5 27.584 6.869 30 15 30C23.131 30 29.5 27.584 29.5 24.5C29.5 21.821 24.7845 19.6305 17.978 19.113ZM9.1335 13.2365C8.07244 11.7314 7.50194 9.93549 7.5 8.09399V7.95399C7.54794 4.94149 9.51931 2.29811 12.393 1.39299C14.0704 0.834115 15.8893 0.871927 17.542 1.49999L17.9075 1.63949C20.6376 2.61874 22.4698 5.19374 22.5 8.09399C22.4981 9.93549 21.9276 11.7314 20.8665 13.2365L15 21.6275L9.1335 13.2365ZM15 29C7.0445 29 1.5 26.6285 1.5 24.5C1.5 22.676 5.6265 20.523 12.532 20.0785C12.5799 20.073 12.6268 20.0604 12.671 20.041L14.5905 22.7865C14.7489 23.0127 15.0608 23.0675 15.2869 22.9091C15.3346 22.8757 15.3761 22.8342 15.4095 22.7865L17.329 20.041C17.3732 20.0604 17.4201 20.073 17.468 20.0785C24.3735 20.523 28.5 22.676 28.5 24.5C28.5 26.6285 22.9555 29 15 29Z" fill="white"/>
</g>
<defs>
<clipPath id="clip0">
<rect width="30" height="30" fill="white"/>
</clipPath>
</defs>
</svg>
