<svg width="50" height="50" viewBox="0 0 50 50" fill="none" xmlns="http://www.w3.org/2000/svg">
<path d="M35.4759 0H14.5242C6.51553 0 0 6.51553 0 14.5242V35.4758C0 43.4845 6.51553 50 14.5242 50H35.4758C43.4845 50 50 43.4845 50 35.4759V14.5242C50 6.51553 43.4845 0 35.4759 0ZM46.0938 35.4758C46.0938 41.3306 41.3306 46.0938 35.4759 46.0938H14.5242C8.66943 46.0938 3.90625 41.3306 3.90625 35.4759V14.5242C3.90625 8.66943 8.66943 3.90625 14.5242 3.90625H35.4758C41.3306 3.90625 46.0938 8.66943 46.0938 14.5242V35.4758Z" fill="black"/>
<path d="M25 11.5234C17.5689 11.5234 11.5234 17.5689 11.5234 25C11.5234 32.4311 17.5689 38.4766 25 38.4766C32.4311 38.4766 38.4766 32.4311 38.4766 25C38.4766 17.5689 32.4311 11.5234 25 11.5234ZM25 34.5703C19.7229 34.5703 15.4297 30.2771 15.4297 25C15.4297 19.7229 19.7229 15.4297 25 15.4297C30.2771 15.4297 34.5703 19.7229 34.5703 25C34.5703 30.2771 30.2771 34.5703 25 34.5703Z" fill="black"/>
<path d="M38.6719 13.2812C39.7506 13.2812 40.625 12.4068 40.625 11.3281C40.625 10.2494 39.7506 9.375 38.6719 9.375C37.5932 9.375 36.7188 10.2494 36.7188 11.3281C36.7188 12.4068 37.5932 13.2812 38.6719 13.2812Z" fill="black"/>
</svg>
