<svg width="45" height="45" viewBox="0 0 45 45" fill="none" xmlns="http://www.w3.org/2000/svg">
<g clip-path="url(#clip0)">
<path d="M39.6848 26.586C45.4753 20.3646 45.0053 10.5253 44.982 10.1006C44.9449 9.42973 44.409 8.89414 43.7381 8.85706C43.5373 8.84573 40.6928 8.70703 37.1336 9.43144C36.4315 5.82585 35.2014 3.23547 35.143 3.11359C34.8522 2.50797 34.1525 2.2182 33.5181 2.44068C33.3907 2.48531 30.6908 3.44662 27.6462 5.49867C25.6491 2.48325 23.5462 0.573339 23.3793 0.423993C22.8791 -0.0243878 22.1214 -0.0243878 21.6208 0.423993C21.454 0.573339 19.3511 2.48325 17.354 5.49901C14.3094 3.44696 11.6092 2.48531 11.4821 2.44068C10.848 2.21855 10.148 2.50797 9.85717 3.11359C9.79881 3.23547 8.56833 5.82585 7.86658 9.43179C4.30734 8.70737 1.46255 8.84608 1.26171 8.85706C0.590852 8.89414 0.0552664 9.42973 0.0181874 10.1009C-0.00550193 10.5253 -0.475169 20.3646 5.31534 26.586C2.36515 28.2192 0.43361 30.3529 0.338166 30.4594C-0.109872 30.9599 -0.109872 31.7176 0.338166 32.2182C0.547937 32.4524 5.54536 37.9521 11.9099 37.9521C13.5637 37.9521 15.1245 37.5802 16.5338 37.0265C17.9988 41.4643 21.4578 44.6016 21.6205 44.7478C21.8708 44.9717 22.1856 45.0839 22.5001 45.0839C22.8146 45.0839 23.1291 44.9717 23.3793 44.7478C23.5424 44.6019 27.0007 41.4643 28.466 37.0268C29.8754 37.5802 31.4361 37.9521 33.0899 37.9521C39.4545 37.9521 44.4522 32.4524 44.662 32.2182C45.1101 31.7176 45.1101 30.9599 44.662 30.4594C44.5662 30.3526 42.6343 28.2188 39.6848 26.586ZM37.4419 25.1155C34.0128 28.5446 28.9051 29.5956 25.657 29.9073C28.0005 27.1089 31.3015 22.1427 31.3015 16.3724C31.3015 15.7266 31.259 15.0915 31.1824 14.4677C35.1835 11.9954 40.0951 11.5522 42.3521 11.4886C42.2773 14.2363 41.6428 20.9146 37.4419 25.1155ZM33.2437 5.40116C33.6413 6.4404 34.2006 8.10861 34.5745 10.0848C33.2612 10.493 31.9158 11.0327 30.618 11.7451C30.2046 10.3227 29.6347 8.9889 28.9941 7.77078C30.6547 6.63884 32.2285 5.85435 33.2437 5.40116ZM22.5015 3.265C24.146 5.00188 27.5936 9.14168 28.4623 14.1003C28.4626 14.101 28.4626 14.1017 28.4629 14.1027C28.5924 14.8426 28.6648 15.601 28.6648 16.3724C28.6648 22.2927 24.3904 27.4759 22.5001 29.4781C20.6097 27.4759 16.335 22.2927 16.335 16.3724C16.335 10.4501 20.6128 5.26521 22.5015 3.265ZM11.7561 5.40116C12.7713 5.85469 14.3455 6.63919 16.0058 7.77113C15.3651 8.9889 14.7952 10.3227 14.3818 11.7451C13.0841 11.0327 11.7386 10.493 10.4254 10.0848C10.7993 8.10861 11.3589 6.44006 11.7561 5.40116ZM13.8174 14.4677C13.7409 15.0915 13.6986 15.7266 13.6986 16.3724C13.6986 22.1461 17.0031 27.1143 19.3467 29.9121C16.1029 29.6045 10.9991 28.5567 7.55759 25.1155C3.36972 20.9276 2.72873 14.2366 2.64977 11.4866C4.90506 11.5477 9.80636 11.9871 13.8174 14.4677ZM3.20218 31.3369C4.09036 30.5321 5.58107 29.3398 7.41957 28.4677C11.2562 31.3259 15.9955 32.2587 19.1451 32.5492C18.4925 33.0329 17.7275 33.5349 16.8792 33.9764C16.8318 33.997 16.7861 34.021 16.7422 34.0467C15.3143 34.7708 13.6595 35.3157 11.9099 35.3157C8.12098 35.3157 4.75091 32.7359 3.20218 31.3369ZM22.498 41.8838C21.4399 40.7165 19.7113 38.511 18.9285 35.853C20.4748 34.9439 21.7077 33.9238 22.4997 33.195C23.2918 33.9238 24.5247 34.9439 26.0707 35.8526C25.2889 38.5007 23.5562 40.7131 22.498 41.8838ZM33.0899 35.3157C30.2479 35.3157 27.6421 33.8644 25.8629 32.5481C29.0126 32.257 33.747 31.3232 37.5799 28.4681C39.4116 29.3377 40.9071 30.5342 41.7983 31.34C40.2541 32.7401 36.8957 35.3157 33.0899 35.3157Z" fill="white"/>
</g>
<defs>
<clipPath id="clip0">
<rect width="45" height="45" fill="white"/>
</clipPath>
</defs>
</svg>
