<svg width="45" height="45" viewBox="0 0 45 45" fill="none" xmlns="http://www.w3.org/2000/svg">
<g clip-path="url(#clip0)">
<path d="M39.6848 26.5859C45.4753 20.3645 45.0053 10.5252 44.982 10.1005C44.9449 9.42966 44.409 8.89408 43.7381 8.857C43.5373 8.84567 40.6928 8.70697 37.1336 9.43138C36.4315 5.82579 35.2014 3.23541 35.143 3.11353C34.8522 2.50791 34.1525 2.21814 33.5181 2.44062C33.3907 2.48525 30.6908 3.44656 27.6462 5.4986C25.6491 2.48319 23.5462 0.573278 23.3793 0.423932C22.8791 -0.0244488 22.1214 -0.0244488 21.6208 0.423932C21.454 0.573278 19.3511 2.48319 17.354 5.49895C14.3094 3.4469 11.6092 2.48525 11.4821 2.44062C10.848 2.21849 10.148 2.50791 9.85717 3.11353C9.79881 3.23541 8.56833 5.82579 7.86658 9.43173C4.30734 8.70731 1.46255 8.84601 1.26171 8.857C0.590852 8.89408 0.0552664 9.42966 0.0181874 10.1009C-0.00550193 10.5252 -0.475169 20.3645 5.31534 26.5859C2.36515 28.2191 0.43361 30.3529 0.338166 30.4593C-0.109872 30.9599 -0.109872 31.7176 0.338166 32.2181C0.547937 32.4523 5.54536 37.952 11.9099 37.952C13.5637 37.952 15.1245 37.5802 16.5338 37.0264C17.9988 41.4642 21.4578 44.6015 21.6205 44.7478C21.8708 44.9716 22.1856 45.0839 22.5001 45.0839C22.8146 45.0839 23.1291 44.9716 23.3793 44.7478C23.5424 44.6018 27.0007 41.4642 28.466 37.0267C29.8754 37.5802 31.4361 37.952 33.0899 37.952C39.4545 37.952 44.4522 32.4523 44.662 32.2181C45.1101 31.7176 45.1101 30.9599 44.662 30.4593C44.5662 30.3525 42.6343 28.2188 39.6848 26.5859ZM37.4419 25.1155C34.0128 28.5446 28.9051 29.5955 25.657 29.9072C28.0005 27.1088 31.3015 22.1426 31.3015 16.3724C31.3015 15.7266 31.259 15.0914 31.1824 14.4676C35.1835 11.9953 40.0951 11.5521 42.3521 11.4886C42.2773 14.2362 41.6428 20.9145 37.4419 25.1155ZM33.2437 5.4011C33.6413 6.44034 34.2006 8.10855 34.5745 10.0847C33.2612 10.4929 31.9158 11.0326 30.618 11.745C30.2046 10.3227 29.6347 8.98884 28.9941 7.77072C30.6547 6.63878 32.2285 5.85429 33.2437 5.4011ZM22.5015 3.26494C24.146 5.00181 27.5936 9.14162 28.4623 14.1002C28.4626 14.1009 28.4626 14.1016 28.4629 14.1026C28.5924 14.8425 28.6648 15.6009 28.6648 16.3724C28.6648 22.2926 24.3904 27.4758 22.5001 29.4781C20.6097 27.4758 16.335 22.2926 16.335 16.3724C16.335 10.45 20.6128 5.26514 22.5015 3.26494ZM11.7561 5.4011C12.7713 5.85463 14.3455 6.63913 16.0058 7.77107C15.3651 8.98884 14.7952 10.3227 14.3818 11.745C13.0841 11.0326 11.7386 10.4929 10.4254 10.0847C10.7993 8.10855 11.3589 6.44 11.7561 5.4011ZM13.8174 14.4676C13.7409 15.0914 13.6986 15.7266 13.6986 16.3724C13.6986 22.146 17.0031 27.1143 19.3467 29.912C16.1029 29.6044 10.9991 28.5566 7.55759 25.1155C3.36972 20.9276 2.72873 14.2365 2.64977 11.4865C4.90506 11.5476 9.80636 11.9871 13.8174 14.4676ZM3.20218 31.3368C4.09036 30.5321 5.58107 29.3397 7.41957 28.4677C11.2562 31.3258 15.9955 32.2587 19.1451 32.5491C18.4925 33.0328 17.7275 33.5348 16.8792 33.9763C16.8318 33.9969 16.7861 34.0209 16.7422 34.0467C15.3143 34.7708 13.6595 35.3156 11.9099 35.3156C8.12098 35.3156 4.75091 32.7359 3.20218 31.3368ZM22.498 41.8837C21.4399 40.7164 19.7113 38.5109 18.9285 35.8529C20.4748 34.9438 21.7077 33.9238 22.4997 33.1949C23.2918 33.9238 24.5247 34.9438 26.0707 35.8526C25.2889 38.5006 23.5562 40.713 22.498 41.8837ZM33.0899 35.3156C30.2479 35.3156 27.6421 33.8644 25.8629 32.5481C29.0126 32.2569 33.747 31.3231 37.5799 28.468C39.4116 29.3377 40.9071 30.5341 41.7983 31.3399C40.2541 32.74 36.8957 35.3156 33.0899 35.3156Z" fill="white"/>
</g>
<defs>
<clipPath id="clip0">
<rect width="45" height="45" fill="white"/>
</clipPath>
</defs>
</svg>
