<svg width="32" height="24" viewBox="0 0 32 24" fill="none" xmlns="http://www.w3.org/2000/svg">
<path d="M30.5901 6.64029H23.2617C23.1271 6.64029 22.9979 6.69379 22.9027 6.78902C22.8074 6.88426 22.7539 7.01342 22.7539 7.1481C22.7539 7.28278 22.8074 7.41194 22.9027 7.50718C22.9979 7.60241 23.1271 7.65591 23.2617 7.65591H28.6242L16 14.6491L3.37457 7.65591H11.4589L15.6409 11.8374C15.688 11.8846 15.744 11.922 15.8057 11.9476C15.8673 11.9731 15.9333 11.9862 16 11.9862C16.0667 11.9862 16.1328 11.9731 16.1944 11.9476C16.256 11.922 16.312 11.8846 16.3591 11.8374L21.2902 6.90638C21.3142 6.88232 21.3356 6.85576 21.354 6.82716C22.0106 6.08987 22.3706 5.13534 22.3645 4.14805C22.3583 3.16077 21.9863 2.21083 21.3205 1.48183C20.6546 0.752839 19.7422 0.296554 18.7595 0.201166C17.7768 0.105779 16.7936 0.378063 16 0.96539C15.2236 0.389343 14.2643 0.114962 13.3006 0.193294C12.337 0.271626 11.4346 0.697338 10.7614 1.39123C10.0882 2.08512 9.68995 2.99994 9.64078 3.96549C9.5916 4.93105 9.89485 5.8816 10.4941 6.64029H1.40994C1.27526 6.64029 1.1461 6.69379 1.05086 6.78902C0.955631 6.88426 0.90213 7.01342 0.90213 7.1481V23.3107C0.90213 23.4454 0.955631 23.5746 1.05086 23.6698C1.1461 23.765 1.27526 23.8186 1.40994 23.8186H30.5901C30.7248 23.8186 30.8539 23.765 30.9492 23.6698C31.0444 23.5746 31.0979 23.4454 31.0979 23.3107V7.1481C31.0979 7.01342 31.0444 6.88426 30.9492 6.78902C30.8539 6.69379 30.7248 6.64029 30.5901 6.64029ZM21.6237 12.6946L30.0823 8.00976V21.9977L21.6237 12.6946ZM16 15.7374C16.086 15.7374 16.1706 15.7155 16.2458 15.6737L20.7125 13.2004L29.442 22.8029H2.55801L9.7397 14.9046C9.78456 14.8553 9.81927 14.7976 9.84184 14.7348C9.86441 14.672 9.87439 14.6055 9.87122 14.5388C9.86805 14.4722 9.85179 14.4069 9.82337 14.3465C9.79495 14.2862 9.75492 14.2321 9.70557 14.1872C9.65622 14.1423 9.59852 14.1076 9.53576 14.085C9.473 14.0625 9.40641 14.0525 9.33979 14.0557C9.27317 14.0588 9.20782 14.0751 9.14749 14.1035C9.08715 14.1319 9.033 14.172 8.98814 14.2213L1.91776 21.9977V8.00976L15.7538 15.6737C15.8291 15.7155 15.9139 15.7375 16 15.7374ZM11.5195 2.06754C12.0638 1.51988 12.8003 1.20614 13.5724 1.19302C14.3445 1.17989 15.0912 1.46842 15.6539 1.99726C15.7477 2.08444 15.8711 2.13289 15.9992 2.13289C16.1273 2.13289 16.2507 2.08444 16.3445 1.99726C16.9068 1.46549 17.6543 1.17384 18.4282 1.18421C19.2021 1.19459 19.9414 1.50618 20.4893 2.05284C21.0372 2.59949 21.3504 3.33816 21.3625 4.11202C21.3746 4.88587 21.0846 5.63396 20.5541 6.19748C20.5396 6.21307 20.526 6.22948 20.5135 6.24663L16 10.7609L11.4866 6.24704C11.4741 6.22969 11.4605 6.21314 11.4459 6.19748C10.9189 5.63462 10.6318 4.8886 10.6455 4.1176C10.6592 3.34661 10.9727 2.61128 11.5195 2.06754Z" fill="white"/>
</svg>
