<svg width="76" height="76" viewBox="0 0 76 76" fill="none" xmlns="http://www.w3.org/2000/svg">
<path d="M38 35.154C47.6921 35.154 55.577 27.269 55.577 17.577C55.577 7.88508 47.6921 0 38 0C28.3079 0 20.423 7.88508 20.423 17.577C20.423 27.269 28.3081 35.154 38 35.154ZM38 2.42553C46.3547 2.42553 53.1515 9.22252 53.1515 17.577C53.1515 25.9315 46.3545 32.7285 38 32.7285C29.6455 32.7285 22.8485 25.9315 22.8485 17.577C22.8485 9.22252 29.6453 2.42553 38 2.42553Z" fill="black"/>
<path d="M38 26.7067C41.0579 26.7067 43.9094 25.1893 45.628 22.6477C46.0031 22.0927 45.8574 21.3388 45.3026 20.9637C44.7475 20.5884 43.9936 20.7341 43.6187 21.289C42.3519 23.1627 40.2514 24.2812 37.9998 24.2812C35.7483 24.2812 33.648 23.1627 32.381 21.289C32.006 20.7342 31.2522 20.5885 30.6971 20.9637C30.1421 21.3388 29.9964 22.0927 30.3717 22.6477C32.0906 25.1893 34.9421 26.7067 38 26.7067Z" fill="black"/>
<path d="M43.8538 48.0377C41.6003 48.0377 39.4818 49.0003 38 50.6302C36.5181 49.0003 34.3997 48.0377 32.1462 48.0377C27.7841 48.0377 24.2354 51.5864 24.2354 55.9485C24.2354 57.6858 24.7884 59.335 25.8346 60.7175L37.0328 75.5189C37.2621 75.822 37.62 76 38 76C38.38 76 38.7378 75.822 38.9671 75.5189L50.1652 60.7177C51.2115 59.335 51.7646 57.6858 51.7646 55.9485C51.7647 51.5864 48.2158 48.0377 43.8538 48.0377ZM48.231 59.2541L38 72.7771L27.7689 59.2541C27.044 58.2962 26.6609 57.1531 26.6609 55.9485C26.6609 52.9238 29.1216 50.4632 32.1462 50.4632C34.1343 50.4632 35.9714 51.5447 36.9404 53.2854C37.1544 53.6699 37.56 53.9084 38 53.9084C38.44 53.9084 38.8455 53.6701 39.0596 53.2854C40.0285 51.5447 41.8656 50.4632 43.8538 50.4632C46.8784 50.4632 49.339 52.9238 49.339 55.9485C49.3392 57.1531 48.9559 58.2962 48.231 59.2541Z" fill="black"/>
<path d="M38 40.846C19.2847 40.846 4.05872 56.072 4.05872 74.7873C4.05872 75.457 4.60171 76 5.27148 76C5.94125 76 6.48425 75.457 6.48425 74.7873C6.48425 57.4095 20.6222 43.2715 38 43.2715C55.3778 43.2715 69.5157 57.4095 69.5157 74.7873C69.5157 75.457 70.0587 76 70.7285 76C71.3983 76 71.9413 75.457 71.9413 74.7873C71.9413 56.072 56.7152 40.846 38 40.846Z" fill="black"/>
</svg>
