<svg width="25" height="25" viewBox="0 0 25 25" fill="none" xmlns="http://www.w3.org/2000/svg">
<g clip-path="url(#clip0)">
<path d="M19.7579 15.4866C19.2461 14.9537 18.6287 14.6688 17.9745 14.6688C17.3255 14.6688 16.7028 14.9484 16.1699 15.4813L14.5026 17.1434C14.3654 17.0695 14.2282 17.0009 14.0963 16.9323C13.9063 16.8374 13.7269 16.7477 13.5739 16.6527C12.0121 15.6607 10.5927 14.368 9.23143 12.6954C8.57187 11.8617 8.12865 11.1599 7.80679 10.4476C8.23946 10.0519 8.64047 9.64033 9.03092 9.2446C9.17866 9.09686 9.3264 8.94384 9.47414 8.7961C10.5822 7.68805 10.5822 6.25286 9.47414 5.14482L8.03368 3.70435C7.87011 3.54078 7.70126 3.37194 7.54297 3.20309C7.22639 2.87596 6.89397 2.53826 6.551 2.22168C6.03919 1.71514 5.42713 1.44604 4.7834 1.44604C4.13968 1.44604 3.51706 1.71514 2.98942 2.22168C2.98414 2.22696 2.98414 2.22696 2.97887 2.23223L1.18488 4.04204C0.509502 4.71743 0.124323 5.54055 0.0399002 6.49558C-0.0867339 8.0363 0.367038 9.47148 0.715282 10.4107C1.57006 12.7165 2.84696 14.8534 4.75174 17.1434C7.06282 19.903 9.84349 22.0821 13.0199 23.6176C14.2335 24.1927 15.8533 24.8734 17.6631 24.9894C17.774 24.9947 17.89 25 17.9956 25C19.2144 25 20.238 24.562 21.0401 23.6914C21.0453 23.6809 21.0559 23.6756 21.0612 23.6651C21.3355 23.3326 21.6521 23.0319 21.9845 22.71C22.2114 22.4937 22.4436 22.2668 22.6705 22.0294C23.1928 21.4859 23.4672 20.8527 23.4672 20.2037C23.4672 19.5494 23.1876 18.9216 22.6546 18.3939L19.7579 15.4866ZM21.6468 21.0427C21.6416 21.0427 21.6416 21.048 21.6468 21.0427C21.4411 21.2643 21.23 21.4648 21.0031 21.6864C20.6602 22.0135 20.3119 22.3565 19.9848 22.7417C19.4519 23.3115 18.824 23.5806 18.0008 23.5806C17.9217 23.5806 17.8373 23.5806 17.7581 23.5754C16.191 23.4751 14.7347 22.863 13.6425 22.3407C10.6561 20.8949 8.03368 18.8424 5.85452 16.2411C4.05526 14.0725 2.85223 12.0675 2.05549 9.9147C1.56479 8.60087 1.38539 7.57725 1.46453 6.61166C1.5173 5.99432 1.75474 5.48251 2.19268 5.04456L3.99194 3.2453C4.25048 3.00259 4.52486 2.87068 4.79396 2.87068C5.12637 2.87068 5.39547 3.07118 5.56431 3.24003C5.56959 3.2453 5.57487 3.25058 5.58014 3.25586C5.902 3.55661 6.20804 3.86792 6.5299 4.20034C6.69347 4.36918 6.86231 4.53803 7.03116 4.71215L8.47162 6.15261C9.03092 6.71191 9.03092 7.229 8.47162 7.7883C8.3186 7.94132 8.17087 8.09434 8.01785 8.24207C7.57463 8.69585 7.15252 9.11796 6.69347 9.52952C6.68291 9.54008 6.67236 9.54535 6.66709 9.5559C6.21331 10.0097 6.29774 10.4529 6.39271 10.7537C6.39799 10.7695 6.40326 10.7853 6.40854 10.8011C6.78317 11.7087 7.31081 12.5635 8.11282 13.5818L8.1181 13.5871C9.57439 15.3811 11.1098 16.7793 12.8036 17.8504C13.0199 17.9876 13.2415 18.0984 13.4526 18.204C13.6425 18.2989 13.8219 18.3886 13.9749 18.4836C13.996 18.4942 14.0171 18.51 14.0382 18.5205C14.2176 18.6102 14.3865 18.6525 14.5606 18.6525C14.9986 18.6525 15.2729 18.3781 15.3626 18.2884L17.1672 16.4838C17.3466 16.3044 17.6315 16.0881 17.9639 16.0881C18.291 16.0881 18.5601 16.2939 18.7237 16.4733C18.729 16.4786 18.729 16.4786 18.7343 16.4838L21.6416 19.3912C22.185 19.9293 22.185 20.4834 21.6468 21.0427Z" fill="white"/>
<path d="M13.5106 5.94676C14.893 6.17892 16.1488 6.83319 17.1513 7.83571C18.1539 8.83823 18.8029 10.094 19.0403 11.4764C19.0983 11.8247 19.3991 12.0674 19.7421 12.0674C19.7843 12.0674 19.8212 12.0621 19.8634 12.0569C20.2539 11.9935 20.5124 11.6242 20.4491 11.2337C20.1642 9.5611 19.3727 8.03622 18.1644 6.82792C16.9561 5.61962 15.4312 4.82815 13.7586 4.54323C13.3682 4.47991 13.0041 4.73846 12.9355 5.12363C12.8669 5.50881 13.1202 5.88344 13.5106 5.94676Z" fill="white"/>
<path d="M24.971 11.028C24.5014 8.27374 23.2034 5.76744 21.2089 3.77295C19.2144 1.77846 16.7081 0.480461 13.9538 0.0108597C13.5686 -0.0577338 13.2046 0.206087 13.136 0.591266C13.0726 0.981721 13.3312 1.34579 13.7216 1.41439C16.1805 1.83122 18.4229 2.99731 20.2064 4.77547C21.9898 6.5589 23.1506 8.80138 23.5675 11.2602C23.6255 11.6084 23.9262 11.8511 24.2692 11.8511C24.3114 11.8511 24.3484 11.8459 24.3906 11.8406C24.7758 11.7826 25.0396 11.4132 24.971 11.028Z" fill="white"/>
</g>
<defs>
<clipPath id="clip0">
<rect width="25" height="25" fill="white"/>
</clipPath>
</defs>
</svg>
